<?xml version="1.0" standalone="no"?><!DOCTYPE svg PUBLIC "-//W3C//DTD SVG 1.1//EN" "http://www.w3.org/Graphics/SVG/1.1/DTD/svg11.dtd"><svg width="16" height="16" viewBox="0 0 16 17" version="1.1" xmlns="http://www.w3.org/2000/svg" xmlns:xlink="http://www.w3.org/1999/xlink" xml:space="preserve" style="fill-rule:evenodd;clip-rule:evenodd;stroke-linecap:round;stroke-linejoin:round;stroke-miterlimit:1.41421;"><path d="M14.943,3.643c0,-1.533 -1.245,-2.777 -2.777,-2.777l-8.523,0c-1.533,0 -2.777,1.244 -2.777,2.777l0,9.446c0,1.533 1.244,2.777 2.777,2.777l8.523,0c1.532,0 2.777,-1.244 2.777,-2.777l0,-9.446Z" style="fill:#fff;stroke-width:1px;stroke:#4285f4;"/><g><path d="M4.878,6.781l-0.554,0.328c-0.103,-0.179 -0.202,-0.297 -0.295,-0.351c-0.098,-0.063 -0.224,-0.094 -0.378,-0.094c-0.19,0 -0.347,0.054 -0.472,0.161c-0.125,0.105 -0.188,0.238 -0.188,0.398c0,0.221 0.164,0.399 0.493,0.534l0.451,0.184c0.367,0.149 0.635,0.33 0.805,0.544c0.17,0.214 0.255,0.476 0.255,0.786c0,0.416 -0.138,0.76 -0.416,1.032c-0.279,0.273 -0.626,0.41 -1.04,0.41c-0.392,0 -0.717,-0.117 -0.972,-0.349c-0.252,-0.232 -0.41,-0.559 -0.472,-0.981l0.691,-0.153c0.032,0.266 0.086,0.45 0.164,0.551c0.141,0.195 0.346,0.293 0.616,0.293c0.213,0 0.389,-0.071 0.53,-0.214c0.141,-0.142 0.211,-0.323 0.211,-0.542c0,-0.088 -0.012,-0.168 -0.037,-0.242c-0.024,-0.073 -0.062,-0.14 -0.114,-0.202c-0.052,-0.061 -0.119,-0.119 -0.201,-0.173c-0.082,-0.053 -0.179,-0.105 -0.293,-0.153l-0.436,-0.182c-0.619,-0.262 -0.929,-0.645 -0.929,-1.148c0,-0.34 0.13,-0.624 0.39,-0.853c0.259,-0.23 0.583,-0.346 0.969,-0.346c0.522,0 0.929,0.254 1.222,0.762Z" style="fill:#4285f4;fill-rule:nonzero;"/><path d="M8.315,6.749l-1.814,0l0,1.087l1.761,0l0,0.641l-1.761,0l0,1.512l1.814,0l0,0.642l-2.496,0l0,-4.524l2.496,0l0,0.642Z" style="fill:#ea4335;fill-rule:nonzero;"/><path d="M8.986,8.348c0,-0.636 0.233,-1.183 0.7,-1.64c0.465,-0.457 1.023,-0.686 1.676,-0.686c0.644,0 1.197,0.231 1.658,0.692c0.463,0.461 0.694,1.014 0.694,1.661c0,0.65 -0.232,1.202 -0.697,1.655c-0.467,0.455 -1.03,0.683 -1.691,0.683c-0.584,0 -1.108,-0.202 -1.573,-0.607c-0.512,-0.447 -0.767,-1.033 -0.767,-1.758ZM9.674,8.357c0,0.5 0.168,0.911 0.504,1.234c0.334,0.322 0.72,0.483 1.157,0.483c0.475,0 0.875,-0.164 1.201,-0.492c0.326,-0.332 0.49,-0.736 0.49,-1.213c0,-0.482 -0.162,-0.887 -0.484,-1.213c-0.32,-0.328 -0.717,-0.492 -1.189,-0.492c-0.471,0 -0.868,0.164 -1.193,0.492c-0.324,0.324 -0.486,0.725 -0.486,1.201Z" style="fill:#fbbc05;fill-rule:nonzero;"/></g></svg>